<svg xmlns="http://www.w3.org/2000/svg" viewBox="0 0 160 220">
  <defs><filter id="soft"><feDropShadow dx="0" dy="1.5" stdDeviation=".8" flood-color="#5b3b1c" flood-opacity=".28"/></filter></defs>
  <g filter="url(#soft)"><g font-family="Arial,Noto Sans TC,sans-serif" font-weight="800" fill="#08704f"><text x="17" y="28" font-size="19">9</text><text x="17" y="45" font-size="13">索</text></g><g transform="translate(48 54) scale(1)"><rect x="-7" y="-21" width="14" height="42" rx="7" fill="#b52227"/><path d="M-5-7H5M-5 7H5" stroke="#f7edcf" stroke-width="3"/><circle r="3" fill="#e9bf55"/></g><g transform="translate(80 54) scale(1)"><rect x="-7" y="-21" width="14" height="42" rx="7" fill="#08704f"/><path d="M-5-7H5M-5 7H5" stroke="#f7edcf" stroke-width="3"/><circle r="3" fill="#e9bf55"/></g><g transform="translate(112 54) scale(1)"><rect x="-7" y="-21" width="14" height="42" rx="7" fill="#15568a"/><path d="M-5-7H5M-5 7H5" stroke="#f7edcf" stroke-width="3"/><circle r="3" fill="#e9bf55"/></g><g transform="translate(48 112) scale(1)"><rect x="-7" y="-21" width="14" height="42" rx="7" fill="#08704f"/><path d="M-5-7H5M-5 7H5" stroke="#f7edcf" stroke-width="3"/><circle r="3" fill="#e9bf55"/></g><g transform="translate(80 112) scale(1)"><rect x="-7" y="-21" width="14" height="42" rx="7" fill="#b52227"/><path d="M-5-7H5M-5 7H5" stroke="#f7edcf" stroke-width="3"/><circle r="3" fill="#e9bf55"/></g><g transform="translate(112 112) scale(1)"><rect x="-7" y="-21" width="14" height="42" rx="7" fill="#08704f"/><path d="M-5-7H5M-5 7H5" stroke="#f7edcf" stroke-width="3"/><circle r="3" fill="#e9bf55"/></g><g transform="translate(48 170) scale(1)"><rect x="-7" y="-21" width="14" height="42" rx="7" fill="#15568a"/><path d="M-5-7H5M-5 7H5" stroke="#f7edcf" stroke-width="3"/><circle r="3" fill="#e9bf55"/></g><g transform="translate(80 170) scale(1)"><rect x="-7" y="-21" width="14" height="42" rx="7" fill="#08704f"/><path d="M-5-7H5M-5 7H5" stroke="#f7edcf" stroke-width="3"/><circle r="3" fill="#e9bf55"/></g><g transform="translate(112 170) scale(1)"><rect x="-7" y="-21" width="14" height="42" rx="7" fill="#b52227"/><path d="M-5-7H5M-5 7H5" stroke="#f7edcf" stroke-width="3"/><circle r="3" fill="#e9bf55"/></g></g>
</svg>